<?xml version="1.0" encoding="utf-8"?>
<!-- Generator: Adobe Illustrator 19.2.1, SVG Export Plug-In . SVG Version: 6.00 Build 0)  -->
<svg version="1.1" id="layer" xmlns="http://www.w3.org/2000/svg" xmlns:xlink="http://www.w3.org/1999/xlink" x="0px" y="0px"
	 viewBox="0 0 652 652" style="enable-background:new 0 0 652 652;" xml:space="preserve">
<style type="text/css">
	.st0{fill:#060D16;}
</style>
<path class="st0" d="M36.4,279.8l-2,8.9l-8.5,3.2l7.3,4.4l0.8,9.4l6.6-5.6c0,0,9,1.9,9,2.1s-3.2-8.4-3.2-8.4l5.2-7.7l-9.4,0.6
	L36.4,279.8z M59.2,340.2v9.7l-8.6,2.9l7.7,5l-2.1,9l8.6-4.2l7.2,6.6v-9.8l9.4-2.9l-8.9-5.3l2.5-9.2l-8.5,4.9L59.2,340.2z
	 M107.8,284.5l-1.4,8.6l-8.9-0.4l6.1,6.4l-5.9,6.8l9-0.7l1.3,9l5.1-7.6l7.8,4.2l-2.6-8.4l8.1-3.4l-8.3-3.2l2.4-8.6l-7.6,4.5
	L107.8,284.5z M56.6,335.8c-0.4,0-0.7-0.2-0.9-0.5L46.2,313c-0.2-0.4,0-0.9,0.5-1.1c0.4-0.2,0.9,0,1.1,0.5l9.5,22.3
	c0.2,0.4,0,0.9-0.4,1.1C56.8,335.8,56.7,335.8,56.6,335.8z M89.3,298.3c-0.1,0-0.1,0-0.2,0L58.5,296c-0.5,0-0.8-0.4-0.8-0.9
	c0-0.5,0.4-0.8,0.9-0.8l0,0l30.5,2.4c0.5,0,0.8,0.4,0.8,0.9C90,297.9,89.7,298.2,89.3,298.3z M79.5,338c-0.2,0-0.4-0.1-0.6-0.2
	c-0.4-0.3-0.4-0.8-0.1-1.2c0,0,0,0,0,0l17.6-20.4c0.3-0.4,0.8-0.4,1.2-0.1c0,0,0,0,0,0c0.4,0.3,0.4,0.8,0.1,1.2c0,0,0,0,0,0
	l-17.6,20.4C79.9,337.9,79.7,338,79.5,338z M154.4,357.5v-67.2h16.7c13.5,0,20.6,5.2,20.6,14.9c0,8.9-8,15.2-16.4,16
	c13.5,0.2,20.4,6.4,20.4,16.2c0,12.7-11.5,20.1-25.1,20.1H154.4z M163.5,295.4v23.8h5c8.3,0,13-4.9,13-12.3
	c0-7.8-5.1-11.5-12.4-11.5H163.5z M163.5,324.1v28.3h6.4c10.2,0,15.6-6.1,15.6-14.6c0-9.1-7-13.7-15-13.7H163.5z M269.4,324
	c0,21.4-16.1,34.8-33.4,34.8c-17.6,0-32.8-13-32.8-35c0-21.4,16.1-34.8,33.4-34.8C254.1,289,269.4,302,269.4,324z M213.6,322.4
	c0,18.9,10.7,31.2,23.6,31.2c12.5,0,21.7-10.8,21.7-28.2c0-19-10.8-31.2-23.9-31.2C222.6,294.2,213.6,305,213.6,322.4z M343.8,324
	c0,21.4-16.1,34.8-33.4,34.8c-17.6,0-32.8-13-32.8-35c0-21.4,16.1-34.8,33.4-34.8C328.5,289,343.8,302,343.8,324z M288,322.4
	c0,18.9,10.7,31.2,23.6,31.2c12.5,0,21.7-10.8,21.7-28.2c0-19-10.8-31.2-23.9-31.2C297,294.2,288,305,288,322.4z M356.1,290.3h9.1
	v33.1l29.8-33.1h7.9l-23.9,26.5l26.1,40.7h-10.8l-21.5-33.7l-7.5,8.3v25.5h-9.1V290.3z M438.3,358.7c-17.4,0-32.1-13-32.1-34.1
	c0-22.5,15.7-35.6,32.4-35.6c11.7,0,22.8,6.4,23.4,18l-10.6,1.2c-0.9-9-6.5-13.9-15-13.9c-11.5,0-20.9,10.6-20.9,26.1
	c0,17.3,11,29.9,25.6,29.9c9,0,17.2-4.3,21.9-11.9C461.7,352.2,450,358.7,438.3,358.7z M474.7,290.3h9.1v61.5h27.8v5.8h-36.9V290.3z
	 M518.2,290.3h9.1v39.9c0,14.2,4.8,21.9,17.7,21.9c10.9,0,17.8-7.1,17.8-21.5v-40.2h6v40.1c0,19.1-9.5,28.4-24.7,28.4
	c-15.7,0-25.9-7.4-25.9-24.9L518.2,290.3z M584.8,357.5v-67.2h16.7c13.5,0,20.6,5.2,20.6,14.9c0,8.9-8,15.2-16.4,16
	c13.5,0.2,20.4,6.4,20.4,16.2c0,12.7-11.5,20.1-25.1,20.1H584.8z M593.9,295.4v23.8h5c8.3,0,13-4.9,13-12.3
	c0-7.8-5.1-11.5-12.4-11.5H593.9z M593.9,324.1v28.3h6.4c10.2,0,15.6-6.1,15.6-14.6c0-9.1-7-13.7-15-13.7H593.9z"/>
</svg>
